<svg width="12" height="12" viewBox="0 0 12 12" fill="none" xmlns="http://www.w3.org/2000/svg">
<g clip-path="url(#clip0_8_2544)">
<path d="M3 1.5C3.12247 1.50002 3.24067 1.54498 3.33219 1.62636C3.4237 1.70774 3.48217 1.81987 3.4965 1.9415L3.5 2V3.5855C3.79242 3.68901 4.04558 3.8806 4.22462 4.13391C4.40367 4.38722 4.49981 4.6898 4.49981 5C4.49981 5.3102 4.40367 5.61278 4.22462 5.86609C4.04558 6.1194 3.79242 6.31099 3.5 6.4145V10C3.49986 10.1274 3.45106 10.25 3.36358 10.3427C3.27609 10.4354 3.15652 10.4911 3.0293 10.4986C2.90208 10.5061 2.77681 10.4647 2.67908 10.3829C2.58136 10.3011 2.51855 10.185 2.5035 10.0585L2.5 10V6.415C2.22164 6.31645 1.97853 6.13799 1.8011 5.90195C1.62367 5.66591 1.5198 5.38278 1.5025 5.088L1.5 5L1.5025 4.912C1.5198 4.61722 1.62367 4.33409 1.8011 4.09805C1.97853 3.86201 2.22164 3.68355 2.5 3.585V2C2.5 1.86739 2.55268 1.74021 2.64645 1.64645C2.74021 1.55268 2.86739 1.5 3 1.5Z" fill="#888888"/>
<path d="M6 1.5C6.12247 1.50002 6.24067 1.54498 6.33219 1.62636C6.4237 1.70774 6.48217 1.81987 6.4965 1.9415L6.5 2V6.5855C6.79242 6.68901 7.04558 6.8806 7.22462 7.13391C7.40367 7.38722 7.49981 7.6898 7.49981 8C7.49981 8.3102 7.40367 8.61278 7.22462 8.86609C7.04558 9.1194 6.79242 9.31099 6.5 9.4145V10C6.49986 10.1274 6.45106 10.25 6.36358 10.3427C6.27609 10.4354 6.15652 10.4911 6.0293 10.4986C5.90208 10.5061 5.77681 10.4647 5.67908 10.3829C5.58136 10.3011 5.51855 10.185 5.5035 10.0585L5.5 10V9.415C5.22164 9.31645 4.97853 9.13799 4.8011 8.90195C4.62367 8.66591 4.5198 8.38278 4.5025 8.088L4.5 8L4.5025 7.912C4.5198 7.61722 4.62367 7.33409 4.8011 7.09805C4.97853 6.86201 5.22164 6.68355 5.5 6.585V2C5.5 1.86739 5.55268 1.74021 5.64645 1.64645C5.74021 1.55268 5.86739 1.5 6 1.5Z" fill="#888888"/>
<path d="M9 1.5C9.12247 1.50002 9.24067 1.54498 9.33219 1.62636C9.4237 1.70774 9.48217 1.81987 9.4965 1.9415L9.5 2V2.0855C9.79242 2.18901 10.0456 2.3806 10.2246 2.63391C10.4037 2.88722 10.4998 3.1898 10.4998 3.5C10.4998 3.8102 10.4037 4.11278 10.2246 4.36609C10.0456 4.6194 9.79242 4.81099 9.5 4.9145V10C9.49986 10.1274 9.45106 10.25 9.36358 10.3427C9.27609 10.4354 9.15652 10.4911 9.0293 10.4986C8.90208 10.5061 8.77681 10.4647 8.67908 10.3829C8.58136 10.3011 8.51855 10.185 8.5035 10.0585L8.5 10V4.915C8.22164 4.81645 7.97853 4.63799 7.8011 4.40195C7.62367 4.16591 7.5198 3.88278 7.5025 3.588L7.5 3.5L7.5025 3.412C7.5198 3.11722 7.62367 2.83409 7.8011 2.59805C7.97853 2.36201 8.22164 2.18355 8.5 2.085V2C8.5 1.86739 8.55268 1.74021 8.64645 1.64645C8.74021 1.55268 8.86739 1.5 9 1.5Z" fill="#888888"/>
</g>
<defs>
<clipPath id="clip0_8_2544">
<rect width="12" height="12" fill="white"/>
</clipPath>
</defs>
</svg>
