<svg width="12" height="12" viewBox="0 0 12 12" fill="none" xmlns="http://www.w3.org/2000/svg">
<g clip-path="url(#clip0_31_812)">
<path d="M7.4485 0.5C7.93983 0.499973 8.41397 0.680804 8.7805 1.008L8.863 1.086L10.913 3.136C11.2613 3.48355 11.4692 3.94728 11.497 4.4385L11.5 4.552V7.449C11.5 7.94033 11.3192 8.41447 10.992 8.781L10.914 8.8635L8.864 10.9135C8.5167 11.2615 8.05337 11.4694 7.5625 11.4975L7.449 11.5005H4.5515C4.0601 11.5004 3.58593 11.3194 3.2195 10.992L3.137 10.914L1.087 8.864C0.738862 8.51657 0.530951 8.05304 0.503 7.562L0.5 7.4485V4.5515C0.499973 4.06017 0.680804 3.58603 1.008 3.2195L1.086 3.137L3.136 1.087C3.48355 0.73875 3.94728 0.53083 4.4385 0.503L4.552 0.5H7.4485ZM6.005 7.5L5.9415 7.5035C5.81998 7.51795 5.70797 7.57648 5.62671 7.66798C5.54544 7.75949 5.50056 7.87762 5.50056 8C5.50056 8.12238 5.54544 8.24051 5.62671 8.33202C5.70797 8.42352 5.81998 8.48205 5.9415 8.4965L6 8.5L6.0635 8.4965C6.18502 8.48205 6.29703 8.42352 6.37829 8.33202C6.45956 8.24051 6.50444 8.12238 6.50444 8C6.50444 7.87762 6.45956 7.75949 6.37829 7.66798C6.29703 7.57648 6.18502 7.51795 6.0635 7.5035L6.005 7.5ZM6 3.5C5.87753 3.50002 5.75933 3.54498 5.66781 3.62636C5.5763 3.70774 5.51783 3.81987 5.5035 3.9415L5.5 4V6L5.5035 6.0585C5.51795 6.18002 5.57648 6.29203 5.66798 6.37329C5.75949 6.45456 5.87762 6.49944 6 6.49944C6.12238 6.49944 6.24051 6.45456 6.33202 6.37329C6.42352 6.29203 6.48205 6.18002 6.4965 6.0585L6.5 6V4L6.4965 3.9415C6.48217 3.81987 6.4237 3.70774 6.33219 3.62636C6.24067 3.54498 6.12247 3.50002 6 3.5Z" fill="#888888"/>
</g>
<defs>
<clipPath id="clip0_31_812">
<rect width="12" height="12" fill="white"/>
</clipPath>
</defs>
</svg>
