<svg width="12" height="12" viewBox="0 0 12 12" fill="none" xmlns="http://www.w3.org/2000/svg">
<g clip-path="url(#clip0_8_2535)">
<path d="M7.11751 9.5C7.55001 9.5 7.77851 10.012 7.49001 10.334C7.3026 10.5437 7.07298 10.7115 6.8162 10.8263C6.55942 10.941 6.28128 11.0002 6.00001 11C5.71875 11.0002 5.44061 10.941 5.18383 10.8263C4.92705 10.7115 4.69743 10.5437 4.51001 10.334C4.23401 10.026 4.43101 9.5445 4.82701 9.5035L4.88201 9.5005L7.11751 9.5Z" fill="#888888"/>
<path d="M6 1C6.679 1 7.253 1.4515 7.4375 2.0705L7.4605 2.156L7.4645 2.1775C8.0157 2.48845 8.48539 2.92555 8.83511 3.453C9.18483 3.98045 9.40463 4.58324 9.4765 5.212L9.4905 5.3555L9.5 5.5V6.9655L9.5105 7.0335C9.57897 7.40191 9.78284 7.73136 10.082 7.957L10.1655 8.0155L10.2465 8.065C10.6765 8.3085 10.5265 8.948 10.058 8.997L10 9H2C1.486 9 1.3065 8.318 1.7535 8.065C1.94402 7.95719 2.10863 7.80898 2.23577 7.63078C2.36292 7.45259 2.44952 7.24872 2.4895 7.0335L2.5 6.962L2.5005 5.477C2.53099 4.82394 2.72108 4.18831 3.05415 3.62573C3.38721 3.06316 3.85309 2.5908 4.411 2.25L4.535 2.177L4.54 2.1555C4.61073 1.85651 4.77148 1.58642 5.00055 1.38167C5.22962 1.17692 5.51599 1.04737 5.821 1.0105L5.912 1.002L6 1Z" fill="#888888"/>
</g>
<defs>
<clipPath id="clip0_8_2535">
<rect width="12" height="12" fill="white"/>
</clipPath>
</defs>
</svg>
