<svg width="12" height="12" viewBox="0 0 12 12" fill="none" xmlns="http://www.w3.org/2000/svg">
<g clip-path="url(#clip0_8_2529)">
<path d="M6.5 1L6.509 1.0005L6.517 1.001L6.5585 1.0035L6.564 1.0045H6.5695L6.5885 1.009L6.6145 1.013L6.6225 1.016L6.628 1.0165L6.6425 1.022L6.6685 1.029L6.678 1.0335L6.6855 1.0355L6.6995 1.0425L6.7195 1.051L6.73 1.057L6.741 1.062L6.7525 1.0695L6.768 1.078L6.785 1.09L6.794 1.0955L6.8005 1.1015L6.8125 1.11L6.8315 1.127L6.8425 1.1355L6.8465 1.1405L6.8535 1.1465L6.8715 1.167L6.8845 1.1805L6.8875 1.185C6.9475 1.2585 6.9855 1.346 6.9965 1.4415L6.997 1.4475L6.998 1.468L7 1.5V4.5H9.5C9.58764 4.49998 9.67373 4.52299 9.74967 4.56672C9.82561 4.61046 9.88872 4.67339 9.93268 4.7492C9.97663 4.82501 9.99989 4.91104 10.0001 4.99867C10.0004 5.0863 9.97756 5.17246 9.934 5.2485L9.904 5.294L5.904 10.794C5.62 11.1855 5 10.984 5 10.5V7.5H2.5C2.41237 7.50002 2.32627 7.47701 2.25033 7.43328C2.1744 7.38954 2.11129 7.32661 2.06733 7.2508C2.02337 7.17499 2.00011 7.08896 1.99988 7.00133C1.99965 6.9137 2.02245 6.82754 2.066 6.7515L2.096 6.706L6.096 1.206L6.101 1.1995L6.11 1.1875L6.1265 1.1685L6.1355 1.1575L6.14 1.1535L6.1465 1.1465L6.1665 1.1285L6.1805 1.1155L6.1845 1.1125C6.2431 1.06454 6.31183 1.03052 6.3855 1.013L6.391 1.0125L6.4045 1.01L6.4415 1.0035L6.447 1.003L6.4675 1.002L6.5 1Z" fill="#888888"/>
</g>
<defs>
<clipPath id="clip0_8_2529">
<rect width="12" height="12" fill="white"/>
</clipPath>
</defs>
</svg>
