<svg width="12" height="12" viewBox="0 0 12 12" fill="none" xmlns="http://www.w3.org/2000/svg">
<g clip-path="url(#clip0_8_2539)">
<path d="M10.75 2.567C10.8173 2.60588 10.8747 2.65993 10.9175 2.72485C10.9603 2.78978 10.9873 2.86379 10.9965 2.941L11 3V9.5C11 9.58777 10.9769 9.67399 10.933 9.75C10.8891 9.826 10.826 9.88912 10.75 9.933C10.674 9.97689 10.5878 9.99999 10.5 9.99999C10.4122 9.99999 10.326 9.97688 10.25 9.933C9.68347 9.60587 9.04535 9.42268 8.39156 9.39949C7.73778 9.3763 7.08828 9.51382 6.5 9.8V2.213C7.19069 1.955 7.92988 1.85295 8.66464 1.91415C9.39939 1.97535 10.1115 2.19829 10.75 2.567ZM5.5 2.2135L5.5005 9.8005C4.9354 9.5254 4.31343 9.38734 3.68501 9.3975C3.05659 9.40767 2.43941 9.56577 1.8835 9.859L1.72 9.949L1.6685 9.971L1.644 9.979L1.589 9.992L1.5585 9.997L1.5 10H1.479L1.424 9.994L1.3855 9.987L1.3315 9.971L1.2685 9.943L1.221 9.915L1.1765 9.8815L1.1465 9.8535L1.11 9.8125L1.078 9.768L1.067 9.75L1.051 9.72L1.029 9.6685L1.021 9.644L1.008 9.589L1.003 9.5585L1.001 9.534L1 3C1 2.91223 1.02311 2.82601 1.06699 2.75001C1.11087 2.674 1.17399 2.61088 1.25 2.567C1.88852 2.19837 2.60067 1.97552 3.33542 1.91441C4.07017 1.85329 4.80935 1.95543 5.5 2.2135Z" fill="#888888"/>
</g>
<defs>
<clipPath id="clip0_8_2539">
<rect width="12" height="12" fill="white"/>
</clipPath>
</defs>
</svg>
