<svg width="12" height="12" viewBox="0 0 12 12" fill="none" xmlns="http://www.w3.org/2000/svg">
<g clip-path="url(#clip0_8_2531)">
<path d="M11 6.739V9C11 9.39782 10.842 9.77936 10.5607 10.0607C10.2794 10.342 9.89782 10.5 9.5 10.5H2.5C2.10218 10.5 1.72064 10.342 1.43934 10.0607C1.15804 9.77936 1 9.39782 1 9V6.739L1.2765 6.8775C2.74195 7.61565 4.36001 8.00006 6.00087 7.99988C7.64173 7.99971 9.2597 7.61496 10.725 6.8765L11 6.739ZM7 1C7.39782 1 7.77936 1.15804 8.06066 1.43934C8.34196 1.72064 8.5 2.10218 8.5 2.5V3H9.5C9.89782 3 10.2794 3.15804 10.5607 3.43934C10.842 3.72064 11 4.10218 11 4.5V5.621L10.2765 5.983C8.98199 6.63548 7.55534 6.98309 6.10578 6.99921C4.65622 7.01533 3.2222 6.69953 1.9135 6.076L1.59 5.916L1 5.621V4.5C1 4.10218 1.15804 3.72064 1.43934 3.43934C1.72064 3.15804 2.10218 3 2.5 3H3.5V2.5C3.5 2.10218 3.65804 1.72064 3.93934 1.43934C4.22064 1.15804 4.60218 1 5 1H7ZM6 5C5.86739 5 5.74021 5.05268 5.64645 5.14645C5.55268 5.24021 5.5 5.36739 5.5 5.5C5.49967 5.56566 5.51228 5.63074 5.5371 5.69153C5.56193 5.75232 5.59848 5.80762 5.64468 5.85429C5.69088 5.90095 5.74581 5.93805 5.80635 5.96348C5.86689 5.98891 5.93184 6.00217 5.9975 6.0025C6.06316 6.00283 6.12824 5.99022 6.18903 5.9654C6.24982 5.94057 6.30512 5.90402 6.35179 5.85782C6.39845 5.81162 6.43555 5.75669 6.46098 5.69615C6.48641 5.63561 6.49967 5.57066 6.5 5.505C6.5 5.224 6.276 5 6 5ZM7 2H5C4.86739 2 4.74021 2.05268 4.64645 2.14645C4.55268 2.24021 4.5 2.36739 4.5 2.5V3H7.5V2.5C7.5 2.36739 7.44732 2.24021 7.35355 2.14645C7.25979 2.05268 7.13261 2 7 2Z" fill="#888888"/>
</g>
<defs>
<clipPath id="clip0_8_2531">
<rect width="12" height="12" fill="white"/>
</clipPath>
</defs>
</svg>
