<svg width="12" height="12" viewBox="0 0 12 12" fill="none" xmlns="http://www.w3.org/2000/svg">
<g clip-path="url(#clip0_8_2538)">
<path d="M6 4C6.3913 4 6.77401 4.11479 7.10072 4.33015C7.42743 4.5455 7.68379 4.85197 7.83804 5.21159C7.9923 5.5712 8.03767 5.96817 7.96854 6.35332C7.89941 6.73847 7.71882 7.09488 7.44914 7.37841C7.17945 7.66193 6.83251 7.86012 6.4513 7.94842C6.07009 8.03671 5.67135 8.01125 5.30447 7.87517C4.93759 7.73908 4.61869 7.49837 4.38727 7.18284C4.15584 6.8673 4.02207 6.49081 4.0025 6.1L4 6L4.0025 5.9C4.02816 5.38752 4.2498 4.90451 4.62159 4.55086C4.99339 4.19722 5.48688 4 6 4Z" fill="#888888"/>
<path d="M6 1C6.12247 1.00002 6.24067 1.04498 6.33219 1.12636C6.4237 1.20774 6.48217 1.31987 6.4965 1.4415L6.5 1.5V2.5C6.49986 2.62744 6.45106 2.75002 6.36358 2.84268C6.27609 2.93535 6.15652 2.99112 6.0293 2.99859C5.90208 3.00605 5.77681 2.96466 5.67908 2.88287C5.58136 2.80107 5.51855 2.68505 5.5035 2.5585L5.5 2.5V1.5C5.5 1.36739 5.55268 1.24021 5.64645 1.14645C5.74021 1.05268 5.86739 1 6 1Z" fill="#888888"/>
<path d="M8.8465 2.44651C8.93648 2.35683 9.05722 2.30477 9.18419 2.30089C9.31117 2.29702 9.43486 2.34161 9.53014 2.42563C9.62542 2.50965 9.68516 2.62678 9.6972 2.75324C9.70925 2.87971 9.67271 3.00601 9.595 3.10651L9.5535 3.15351L8.8535 3.85351C8.76352 3.94318 8.64279 3.99524 8.51581 3.99912C8.38884 4.003 8.26515 3.9584 8.16986 3.87438C8.07458 3.79037 8.01485 3.67323 8.0028 3.54677C7.99076 3.42031 8.0273 3.294 8.105 3.19351L8.1465 3.14651L8.8465 2.44651Z" fill="#888888"/>
<path d="M10.5 5.5C10.6274 5.50014 10.75 5.54894 10.8427 5.63642C10.9353 5.72391 10.9911 5.84348 10.9986 5.9707C11.006 6.09792 10.9647 6.22319 10.8829 6.32092C10.8011 6.41864 10.685 6.48145 10.5585 6.4965L10.5 6.5H9.5C9.37256 6.49986 9.24998 6.45106 9.15731 6.36358C9.06464 6.27609 9.00888 6.15652 9.00141 6.0293C8.99394 5.90208 9.03533 5.77681 9.11713 5.67908C9.19892 5.58136 9.31495 5.51855 9.44149 5.5035L9.5 5.5H10.5Z" fill="#888888"/>
<path d="M8.1465 8.14649C8.2326 8.0604 8.34715 8.00869 8.46866 8.00105C8.59017 7.99341 8.7103 8.03037 8.8065 8.10499L8.8535 8.14649L9.5535 8.84649C9.64317 8.93647 9.69524 9.05721 9.69911 9.18418C9.70299 9.31116 9.65839 9.43485 9.57438 9.53013C9.49036 9.62541 9.37322 9.68514 9.24676 9.69719C9.1203 9.70924 8.994 9.6727 8.8935 9.59499L8.8465 9.55349L8.1465 8.85349C8.05276 8.75973 8.00011 8.63257 8.00011 8.49999C8.00011 8.36741 8.05276 8.24025 8.1465 8.14649Z" fill="#888888"/>
<path d="M6 9C6.12247 9.00002 6.24067 9.04498 6.33219 9.12636C6.4237 9.20774 6.48217 9.31987 6.4965 9.4415L6.5 9.5V10.5C6.49986 10.6274 6.45106 10.75 6.36358 10.8427C6.27609 10.9354 6.15652 10.9911 6.0293 10.9986C5.90208 11.0061 5.77681 10.9647 5.67908 10.8829C5.58136 10.8011 5.51855 10.685 5.5035 10.5585L5.5 10.5V9.5C5.5 9.36739 5.55268 9.24021 5.64645 9.14645C5.74021 9.05268 5.86739 9 6 9Z" fill="#888888"/>
<path d="M3.14651 8.14649C3.23649 8.05681 3.35722 8.00475 3.4842 8.00087C3.61117 7.997 3.73486 8.0416 3.83015 8.12561C3.92543 8.20963 3.98516 8.32676 3.99721 8.45323C4.00925 8.57969 3.97271 8.70599 3.89501 8.80649L3.85351 8.85349L3.15351 9.55349C3.06353 9.64316 2.94279 9.69522 2.81581 9.6991C2.68884 9.70298 2.56515 9.65838 2.46987 9.57436C2.37458 9.49035 2.31485 9.37321 2.30281 9.24675C2.29076 9.12029 2.3273 8.99398 2.40501 8.89349L2.44651 8.84649L3.14651 8.14649Z" fill="#888888"/>
<path d="M3 5.5C3.12744 5.50014 3.25001 5.54894 3.34268 5.63642C3.43535 5.72391 3.49111 5.84348 3.49858 5.9707C3.50605 6.09792 3.46466 6.22319 3.38286 6.32092C3.30107 6.41864 3.18504 6.48145 3.0585 6.4965L3 6.5H2C1.87256 6.49986 1.74998 6.45106 1.65731 6.36358C1.56464 6.27609 1.50888 6.15652 1.50141 6.0293C1.49394 5.90208 1.53533 5.77681 1.61713 5.67908C1.69892 5.58136 1.81495 5.51855 1.9415 5.5035L2 5.5H3Z" fill="#888888"/>
<path d="M2.4465 2.44649C2.5326 2.36041 2.64715 2.30869 2.76866 2.30105C2.89018 2.29341 3.0103 2.33037 3.1065 2.40499L3.1535 2.44649L3.8535 3.14649C3.94318 3.23647 3.99524 3.35721 3.99912 3.48419C4.00299 3.61116 3.9584 3.73485 3.87438 3.83013C3.79036 3.92542 3.67323 3.98515 3.54677 3.99719C3.4203 4.00924 3.294 3.9727 3.1935 3.89499L3.1465 3.85349L2.4465 3.15349C2.35277 3.05973 2.30011 2.93258 2.30011 2.79999C2.30011 2.66741 2.35277 2.54026 2.4465 2.44649Z" fill="#888888"/>
</g>
<defs>
<clipPath id="clip0_8_2538">
<rect width="12" height="12" fill="white"/>
</clipPath>
</defs>
</svg>
