<svg width="12" height="12" viewBox="0 0 12 12" fill="none" xmlns="http://www.w3.org/2000/svg">
<g clip-path="url(#clip0_8_2546)">
<path d="M2 5.5C2.12744 5.50014 2.25002 5.54894 2.34268 5.63642C2.43535 5.72391 2.49112 5.84348 2.49859 5.9707C2.50605 6.09792 2.46466 6.22319 2.38287 6.32092C2.30107 6.41864 2.18505 6.48145 2.0585 6.4965L2 6.5H1.5C1.37256 6.49986 1.24998 6.45106 1.15732 6.36358C1.06465 6.27609 1.00888 6.15652 1.00141 6.0293C0.993945 5.90208 1.03534 5.77681 1.11713 5.67908C1.19893 5.58136 1.31495 5.51855 1.4415 5.5035L1.5 5.5H2Z" fill="#888888"/>
<path d="M6 1C6.12247 1.00002 6.24067 1.04498 6.33219 1.12636C6.4237 1.20774 6.48217 1.31987 6.4965 1.4415L6.5 1.5V2C6.49986 2.12744 6.45106 2.25002 6.36358 2.34268C6.27609 2.43535 6.15652 2.49112 6.0293 2.49859C5.90208 2.50605 5.77681 2.46466 5.67908 2.38287C5.58136 2.30107 5.51855 2.18505 5.5035 2.0585L5.5 2V1.5C5.5 1.36739 5.55268 1.24021 5.64645 1.14645C5.74021 1.05268 5.86739 1 6 1Z" fill="#888888"/>
<path d="M10.5 5.5C10.6274 5.50014 10.75 5.54894 10.8427 5.63642C10.9354 5.72391 10.9911 5.84348 10.9986 5.9707C11.0061 6.09792 10.9647 6.22319 10.8829 6.32092C10.8011 6.41864 10.685 6.48145 10.5585 6.4965L10.5 6.5H10C9.87256 6.49986 9.74998 6.45106 9.65732 6.36358C9.56465 6.27609 9.50888 6.15652 9.50141 6.0293C9.49394 5.90208 9.53534 5.77681 9.61713 5.67908C9.69893 5.58136 9.81495 5.51855 9.9415 5.5035L10 5.5H10.5Z" fill="#888888"/>
<path d="M2.4465 2.44649C2.5326 2.36041 2.64715 2.30869 2.76866 2.30105C2.89017 2.29341 3.0103 2.33037 3.1065 2.40499L3.1535 2.44649L3.5035 2.79649C3.59317 2.88647 3.64524 3.00721 3.64911 3.13419C3.65299 3.26116 3.60839 3.38485 3.52437 3.48013C3.44036 3.57542 3.32322 3.63515 3.19676 3.64719C3.0703 3.65924 2.94399 3.6227 2.8435 3.54499L2.7965 3.50349L2.4465 3.15349C2.35276 3.05973 2.30011 2.93258 2.30011 2.79999C2.30011 2.66741 2.35276 2.54026 2.4465 2.44649Z" fill="#888888"/>
<path d="M8.8465 2.44651C8.93648 2.35683 9.05722 2.30477 9.18419 2.30089C9.31117 2.29702 9.43486 2.34161 9.53014 2.42563C9.62542 2.50965 9.68515 2.62678 9.6972 2.75324C9.70925 2.87971 9.67271 3.00601 9.595 3.10651L9.5535 3.15351L9.2035 3.50351C9.11352 3.59318 8.99279 3.64524 8.86581 3.64912C8.73884 3.653 8.61514 3.6084 8.51986 3.52438C8.42458 3.44037 8.36485 3.32323 8.3528 3.19677C8.34076 3.07031 8.3773 2.944 8.455 2.84351L8.4965 2.79651L8.8465 2.44651Z" fill="#888888"/>
<path d="M7 9C7.13261 9 7.25979 9.05268 7.35355 9.14645C7.44732 9.24021 7.5 9.36739 7.5 9.5C7.5 9.89782 7.34196 10.2794 7.06066 10.5607C6.77936 10.842 6.39782 11 6 11C5.60218 11 5.22064 10.842 4.93934 10.5607C4.65804 10.2794 4.5 9.89782 4.5 9.5C4.50002 9.37753 4.54498 9.25933 4.62636 9.16781C4.70774 9.0763 4.81987 9.01783 4.9415 9.0035L5 9H7Z" fill="#888888"/>
<path d="M6 3C6.62965 3 7.24333 3.19811 7.75413 3.56627C8.26493 3.93443 8.64694 4.45398 8.84605 5.05132C9.04516 5.64865 9.05128 6.2935 8.86354 6.8945C8.6758 7.49551 8.30372 8.02221 7.8 8.4C7.73109 8.45176 7.64996 8.48483 7.5645 8.496L7.5 8.5H4.5C4.39181 8.5 4.28655 8.46491 4.2 8.4C3.69628 8.02221 3.3242 7.49551 3.13646 6.8945C2.94872 6.2935 2.95484 5.64865 3.15395 5.05132C3.35306 4.45398 3.73507 3.93443 4.24587 3.56627C4.75667 3.19811 5.37035 3 6 3Z" fill="#888888"/>
</g>
<defs>
<clipPath id="clip0_8_2546">
<rect width="12" height="12" fill="white"/>
</clipPath>
</defs>
</svg>
