<svg width="12" height="12" viewBox="0 0 12 12" fill="none" xmlns="http://www.w3.org/2000/svg">
<g clip-path="url(#clip0_31_819)">
<path d="M5.02 2.1525C6.1175 1.819 7.3275 2.0405 8.2 2.7405C8.893 3.2945 9.294 4.0835 9.326 4.9105L9.3275 5.0165L9.373 5.018C10.523 5.0715 11.4445 5.9985 11.498 7.153L11.5 7.2585C11.5 8.462 10.5575 9.4445 9.3725 9.4995L9.2675 9.502H3.3285L3.2175 9.498C1.7475 9.443 0.559 8.2985 0.5025 6.8665L0.5 6.7585C0.5 5.385 1.54 4.2535 2.892 4.05L2.949 4.042L2.984 3.9515C3.3155 3.1415 4.012 2.4985 4.8985 2.1925L5.0205 2.1525H5.02Z" fill="#888888"/>
</g>
<defs>
<clipPath id="clip0_31_819">
<rect width="12" height="12" fill="white"/>
</clipPath>
</defs>
</svg>
