<svg width="12" height="12" viewBox="0 0 12 12" fill="none" xmlns="http://www.w3.org/2000/svg">
<g clip-path="url(#clip0_31_808)">
<path d="M6 0.5C6.13261 0.5 6.25979 0.552678 6.35355 0.646447C6.44732 0.740215 6.5 0.867392 6.5 1V1.5275C7.51452 1.6411 8.46031 2.09613 9.18222 2.81794C9.90412 3.53976 10.3593 4.48549 10.473 5.5H11C11.1326 5.5 11.2598 5.55268 11.3536 5.64645C11.4473 5.74021 11.5 5.86739 11.5 6C11.5 6.13261 11.4473 6.25979 11.3536 6.35355C11.2598 6.44732 11.1326 6.5 11 6.5H10.4725C10.3588 7.51436 9.90381 8.45997 9.18211 9.18177C8.4604 9.90356 7.51484 10.3587 6.5005 10.4725L6.5 11C6.5 11.1326 6.44732 11.2598 6.35355 11.3536C6.25979 11.4473 6.13261 11.5 6 11.5C5.86739 11.5 5.74021 11.4473 5.64645 11.3536C5.55268 11.2598 5.5 11.1326 5.5 11V10.4725C4.48564 10.3588 3.54003 9.90381 2.81823 9.18211C2.09644 8.4604 1.64131 7.51484 1.5275 6.5005L1 6.5C0.867392 6.5 0.740215 6.44732 0.646447 6.35355C0.552678 6.25979 0.5 6.13261 0.5 6C0.5 5.86739 0.552678 5.74021 0.646447 5.64645C0.740215 5.55268 0.867392 5.5 1 5.5H1.5275C1.64121 4.48557 2.09628 3.53989 2.81809 2.81809C3.53989 2.09628 4.48557 1.64121 5.5 1.5275V1C5.5 0.867392 5.55268 0.740215 5.64645 0.646447C5.74021 0.552678 5.86739 0.5 6 0.5ZM6 2.5C5.54037 2.5 5.08525 2.59053 4.66061 2.76642C4.23597 2.94231 3.85013 3.20012 3.52513 3.52513C3.20012 3.85013 2.94231 4.23597 2.76642 4.66061C2.59053 5.08525 2.5 5.54037 2.5 6C2.5 6.45963 2.59053 6.91475 2.76642 7.33939C2.94231 7.76403 3.20012 8.14987 3.52513 8.47487C3.85013 8.79988 4.23597 9.05769 4.66061 9.23358C5.08525 9.40947 5.54037 9.5 6 9.5C6.92826 9.5 7.8185 9.13125 8.47487 8.47487C9.13125 7.8185 9.5 6.92826 9.5 6C9.5 5.07174 9.13125 4.1815 8.47487 3.52513C7.8185 2.86875 6.92826 2.5 6 2.5ZM6 4C6.39556 4 6.78224 4.1173 7.11114 4.33706C7.44004 4.55682 7.69638 4.86918 7.84776 5.23463C7.99913 5.60009 8.03874 6.00222 7.96157 6.39018C7.8844 6.77814 7.69392 7.13451 7.41421 7.41421C7.13451 7.69392 6.77814 7.8844 6.39018 7.96157C6.00222 8.03874 5.60009 7.99913 5.23463 7.84776C4.86918 7.69638 4.55682 7.44004 4.33706 7.11114C4.1173 6.78224 4 6.39556 4 6L4.0025 5.9C4.02816 5.38752 4.2498 4.90451 4.62159 4.55086C4.99339 4.19722 5.48688 4 6 4Z" fill="#888888"/>
</g>
<defs>
<clipPath id="clip0_31_808">
<rect width="12" height="12" fill="white"/>
</clipPath>
</defs>
</svg>
