<svg width="12" height="12" viewBox="0 0 12 12" fill="none" xmlns="http://www.w3.org/2000/svg">
<g clip-path="url(#clip0_8_2541)">
<path d="M2 3C2 3.39782 2.42143 3.77936 3.17157 4.06066C3.92172 4.34196 4.93913 4.5 6 4.5C7.06087 4.5 8.07828 4.34196 8.82843 4.06066C9.57857 3.77936 10 3.39782 10 3C10 2.60218 9.57857 2.22064 8.82843 1.93934C8.07828 1.65804 7.06087 1.5 6 1.5C4.93913 1.5 3.92172 1.65804 3.17157 1.93934C2.42143 2.22064 2 2.60218 2 3Z" stroke="#888888" stroke-linecap="round" stroke-linejoin="round"/>
<path d="M2 3V6C2 6.39782 2.42143 6.77936 3.17157 7.06066C3.92172 7.34196 4.93913 7.5 6 7.5C7.06087 7.5 8.07828 7.34196 8.82843 7.06066C9.57857 6.77936 10 6.39782 10 6V3" stroke="#888888" stroke-linecap="round" stroke-linejoin="round"/>
<path d="M2 6V9C2 9.39782 2.42143 9.77936 3.17157 10.0607C3.92172 10.342 4.93913 10.5 6 10.5C7.06087 10.5 8.07828 10.342 8.82843 10.0607C9.57857 9.77936 10 9.39782 10 9V6" stroke="#888888" stroke-linecap="round" stroke-linejoin="round"/>
</g>
<defs>
<clipPath id="clip0_8_2541">
<rect width="12" height="12" fill="white"/>
</clipPath>
</defs>
</svg>
