<svg width="12" height="12" viewBox="0 0 12 12" fill="none" xmlns="http://www.w3.org/2000/svg">
<g clip-path="url(#clip0_8_2527)">
<path d="M5 0.999998C5 0.559998 5.528 0.334498 5.846 0.638998C6.825 1.577 7.394 3.6365 6.721 5.199L6.681 5.286L6.687 5.2875C6.9995 5.354 7.2885 5.0725 7.8385 4.201L7.9085 4.089C7.94907 4.02369 8.00415 3.96862 8.06946 3.92807C8.13478 3.88752 8.20856 3.86257 8.28508 3.85517C8.36161 3.84777 8.43881 3.85811 8.51068 3.8854C8.58255 3.91269 8.64717 3.95618 8.6995 4.0125C9.3665 4.73 10 6.201 10 7.1475C10 9.28 8.2045 11 6 11C3.7955 11 2 9.28 2 7.147C2 6.021 2.511 4.789 3.316 3.9965L3.6185 3.702C3.739 3.584 3.8355 3.487 3.9275 3.39C4.6425 2.634 5 1.928 5 0.999998Z" fill="#888888"/>
</g>
<defs>
<clipPath id="clip0_8_2527">
<rect width="12" height="12" fill="white"/>
</clipPath>
</defs>
</svg>
