<svg width="12" height="12" viewBox="0 0 12 12" fill="none" xmlns="http://www.w3.org/2000/svg">
<g clip-path="url(#clip0_8_2547)">
<path d="M5.5 2C5.98984 1.99997 6.46889 2.14384 6.87766 2.41375C7.28643 2.68365 7.60691 3.0677 7.79928 3.51818C7.99165 3.96866 8.04745 4.46573 7.95974 4.94766C7.87203 5.42958 7.64467 5.87511 7.30591 6.22893C6.96716 6.58274 6.53192 6.82924 6.05427 6.93782C5.57661 7.04639 5.07758 7.01225 4.61917 6.83963C4.16075 6.66702 3.76314 6.36354 3.47573 5.96688C3.18831 5.57023 3.02376 5.09788 3.0025 4.6085L3 4.5L3.0025 4.3915C3.03046 3.74788 3.3058 3.13989 3.77111 2.69433C4.23642 2.24877 4.85577 2.00004 5.5 2Z" fill="#888888"/>
<path d="M7.0665 0.751003C7.13255 0.636047 7.24156 0.552032 7.36955 0.517434C7.49754 0.482835 7.63403 0.500485 7.749 0.566503C8.29405 0.879771 8.76753 1.30359 9.13905 1.81073C9.51056 2.31786 9.77189 2.89711 9.90623 3.51124C10.0406 4.12538 10.045 4.76082 9.91913 5.37676C9.79329 5.99269 9.54001 6.57549 9.17554 7.08772C8.81108 7.59995 8.34349 8.03027 7.80283 8.35105C7.26217 8.67182 6.66039 8.87596 6.03615 8.95034C5.41191 9.02471 4.77901 8.96769 4.17811 8.78293C3.57722 8.59817 3.02162 8.28975 2.547 7.8775C2.49743 7.83443 2.45682 7.78201 2.42751 7.72325C2.39819 7.66448 2.38073 7.60052 2.37614 7.53501C2.37154 7.46949 2.37989 7.40372 2.40072 7.34143C2.42154 7.27915 2.45443 7.22158 2.4975 7.172C2.54057 7.12243 2.59299 7.08182 2.65176 7.05251C2.71052 7.02319 2.77449 7.00574 2.84 7.00114C2.90551 6.99654 2.97129 7.0049 3.03357 7.02572C3.09585 7.04654 3.15343 7.07943 3.203 7.1225C3.57232 7.44329 4.00466 7.68327 4.47223 7.82704C4.93981 7.97081 5.4323 8.01518 5.91804 7.9573C6.40379 7.89943 6.87206 7.74059 7.29277 7.49098C7.71348 7.24138 8.07732 6.90653 8.36093 6.50795C8.64454 6.10937 8.84164 5.65587 8.93957 5.17659C9.0375 4.69731 9.03409 4.20285 8.92956 3.72496C8.82503 3.24708 8.6217 2.79634 8.33262 2.40171C8.04354 2.00708 7.67511 1.67728 7.251 1.4335C7.13604 1.36745 7.05203 1.25844 7.01743 1.13046C6.98283 1.00247 7.00048 0.865979 7.0665 0.751003Z" fill="#888888"/>
<path d="M5.5 8C5.62247 8.00002 5.74067 8.04498 5.83219 8.12636C5.9237 8.20774 5.98217 8.31987 5.9965 8.4415L6 8.5V10.5C5.99986 10.6274 5.95106 10.75 5.86358 10.8427C5.77609 10.9354 5.65652 10.9911 5.5293 10.9986C5.40208 11.0061 5.27681 10.9647 5.17908 10.8829C5.08136 10.8011 5.01855 10.685 5.0035 10.5585L5 10.5V8.5C5 8.36739 5.05268 8.24021 5.14645 8.14645C5.24021 8.05268 5.36739 8 5.5 8Z" fill="#888888"/>
<path d="M7.5 10C7.62744 10.0001 7.75002 10.0489 7.84268 10.1364C7.93535 10.2239 7.99112 10.3435 7.99859 10.4707C8.00605 10.5979 7.96466 10.7232 7.88287 10.8209C7.80107 10.9186 7.68505 10.9814 7.5585 10.9965L7.5 11H3.5C3.37256 10.9999 3.24998 10.9511 3.15731 10.8636C3.06465 10.7761 3.00888 10.6565 3.00141 10.5293C2.99394 10.4021 3.03534 10.2768 3.11713 10.1791C3.19893 10.0814 3.31495 10.0186 3.4415 10.0035L3.5 10H7.5Z" fill="#888888"/>
</g>
<defs>
<clipPath id="clip0_8_2547">
<rect width="12" height="12" fill="white"/>
</clipPath>
</defs>
</svg>
