<svg width="16" height="16" viewBox="0 0 16 16" fill="none" xmlns="http://www.w3.org/2000/svg">
<foreignObject x="-3.75" y="-3.75" width="23.5" height="23.5"><div xmlns="http://www.w3.org/1999/xhtml" style="backdrop-filter:blur(1.88px);clip-path:url(#bgblur_0_31_807_clip_path);height:100%;width:100%"></div></foreignObject><g data-figma-bg-blur-radius="3.75">
<rect width="16" height="16" rx="3.75" fill="white"/>
<g clip-path="url(#clip1_31_807)">
<path d="M8.49994 3L8.50894 3.0005L8.51694 3.001L8.55844 3.0035L8.56394 3.0045H8.56944L8.58844 3.009L8.61444 3.013L8.62244 3.016L8.62794 3.0165L8.64244 3.022L8.66844 3.029L8.67794 3.0335L8.68544 3.0355L8.69944 3.0425L8.71944 3.051L8.72994 3.057L8.74094 3.062L8.75244 3.0695L8.76794 3.078L8.78494 3.09L8.79394 3.0955L8.80044 3.1015L8.81244 3.11L8.83144 3.127L8.84244 3.1355L8.84644 3.1405L8.85344 3.1465L8.87144 3.167L8.88444 3.1805L8.88744 3.185C8.94744 3.2585 8.98544 3.346 8.99644 3.4415L8.99694 3.4475L8.99794 3.468L8.99994 3.5V6.5H11.4999C11.5876 6.49998 11.6737 6.52299 11.7496 6.56672C11.8255 6.61046 11.8887 6.67339 11.9326 6.7492C11.9766 6.82501 11.9998 6.91104 12.0001 6.99867C12.0003 7.0863 11.9775 7.17246 11.9339 7.2485L11.9039 7.294L7.90394 12.794C7.61994 13.1855 6.99994 12.984 6.99994 12.5V9.5H4.49994C4.41231 9.50002 4.32621 9.47701 4.25027 9.43328C4.17433 9.38954 4.11123 9.32661 4.06727 9.2508C4.02331 9.17499 4.00005 9.08896 3.99982 9.00133C3.99959 8.9137 4.02239 8.82754 4.06594 8.7515L4.09594 8.706L8.09594 3.206L8.10094 3.1995L8.10994 3.1875L8.12644 3.1685L8.13544 3.1575L8.13994 3.1535L8.14644 3.1465L8.16644 3.1285L8.18044 3.1155L8.18444 3.1125C8.24304 3.06454 8.31177 3.03052 8.38544 3.013L8.39094 3.0125L8.40444 3.01L8.44144 3.0035L8.44694 3.003L8.46744 3.002L8.49994 3Z" fill="#2F80ED"/>
</g>
</g>
<defs>
<clipPath id="bgblur_0_31_807_clip_path" transform="translate(3.75 3.75)"><rect width="16" height="16" rx="3.75"/>
</clipPath><clipPath id="clip1_31_807">
<rect width="12" height="12" fill="white" transform="translate(2 2)"/>
</clipPath>
</defs>
</svg>
