<svg width="16" height="16" viewBox="0 0 16 16" fill="none" xmlns="http://www.w3.org/2000/svg">
<rect width="16" height="16" rx="3.75" fill="white"/>
<g clip-path="url(#clip0_31_821)">
<path d="M12.75 4.567C12.8173 4.60588 12.8747 4.65993 12.9175 4.72485C12.9603 4.78978 12.9873 4.86379 12.9965 4.941L13 5V11.5C13 11.5878 12.9769 11.674 12.933 11.75C12.8891 11.826 12.826 11.8891 12.75 11.933C12.674 11.9769 12.5878 12 12.5 12C12.4122 12 12.326 11.9769 12.25 11.933C11.6835 11.6059 11.0453 11.4227 10.3916 11.3995C9.73778 11.3763 9.08828 11.5138 8.5 11.8V4.213C9.19069 3.955 9.92988 3.85295 10.6646 3.91415C11.3994 3.97535 12.1115 4.19829 12.75 4.567ZM7.5 4.2135L7.5005 11.8005C6.9354 11.5254 6.31343 11.3873 5.68501 11.3975C5.05659 11.4077 4.43941 11.5658 3.8835 11.859L3.72 11.949L3.6685 11.971L3.644 11.979L3.589 11.992L3.5585 11.997L3.5 12H3.479L3.424 11.994L3.3855 11.987L3.3315 11.971L3.2685 11.943L3.221 11.915L3.1765 11.8815L3.1465 11.8535L3.11 11.8125L3.078 11.768L3.067 11.75L3.051 11.72L3.029 11.6685L3.021 11.644L3.008 11.589L3.003 11.5585L3.001 11.534L3 5C3 4.91223 3.02311 4.82601 3.06699 4.75001C3.11087 4.674 3.17399 4.61088 3.25 4.567C3.88852 4.19837 4.60067 3.97552 5.33542 3.91441C6.07017 3.85329 6.80935 3.95543 7.5 4.2135Z" fill="#9B51E0"/>
</g>
<defs>
<clipPath id="clip0_31_821">
<rect width="12" height="12" fill="white" transform="translate(2 2)"/>
</clipPath>
</defs>
</svg>
