<svg width="16" height="16" viewBox="0 0 16 16" fill="none" xmlns="http://www.w3.org/2000/svg">
<rect width="16" height="16" rx="3.75" fill="white"/>
<g clip-path="url(#clip0_31_806)">
<path d="M13 8.739V11C13 11.3978 12.842 11.7794 12.5607 12.0607C12.2794 12.342 11.8978 12.5 11.5 12.5H4.5C4.10218 12.5 3.72064 12.342 3.43934 12.0607C3.15804 11.7794 3 11.3978 3 11V8.739L3.2765 8.8775C4.74195 9.61565 6.36001 10.0001 8.00087 9.99988C9.64173 9.99971 11.2597 9.61496 12.725 8.8765L13 8.739ZM9 3C9.39782 3 9.77936 3.15804 10.0607 3.43934C10.342 3.72064 10.5 4.10218 10.5 4.5V5H11.5C11.8978 5 12.2794 5.15804 12.5607 5.43934C12.842 5.72064 13 6.10218 13 6.5V7.621L12.2765 7.983C10.982 8.63548 9.55534 8.98309 8.10578 8.99921C6.65622 9.01533 5.2222 8.69953 3.9135 8.076L3.59 7.916L3 7.621V6.5C3 6.10218 3.15804 5.72064 3.43934 5.43934C3.72064 5.15804 4.10218 5 4.5 5H5.5V4.5C5.5 4.10218 5.65804 3.72064 5.93934 3.43934C6.22064 3.15804 6.60218 3 7 3H9ZM8 7C7.86739 7 7.74021 7.05268 7.64645 7.14645C7.55268 7.24021 7.5 7.36739 7.5 7.5C7.49967 7.56566 7.51228 7.63074 7.5371 7.69153C7.56193 7.75232 7.59848 7.80762 7.64468 7.85429C7.69088 7.90095 7.74581 7.93805 7.80635 7.96348C7.86689 7.98891 7.93184 8.00217 7.9975 8.0025C8.06316 8.00283 8.12824 7.99022 8.18903 7.9654C8.24982 7.94057 8.30512 7.90402 8.35179 7.85782C8.39845 7.81162 8.43555 7.75669 8.46098 7.69615C8.48641 7.63561 8.49967 7.57066 8.5 7.505C8.5 7.224 8.276 7 8 7ZM9 4H7C6.86739 4 6.74021 4.05268 6.64645 4.14645C6.55268 4.24021 6.5 4.36739 6.5 4.5V5H9.5V4.5C9.5 4.36739 9.44732 4.24021 9.35355 4.14645C9.25979 4.05268 9.13261 4 9 4Z" fill="#1E1E1E"/>
</g>
<defs>
<clipPath id="clip0_31_806">
<rect width="12" height="12" fill="white" transform="translate(2 2)"/>
</clipPath>
</defs>
</svg>
