<svg width="16" height="16" viewBox="0 0 16 16" fill="none" xmlns="http://www.w3.org/2000/svg">
<rect width="16" height="16" rx="3.75" fill="#FFC300"/>
<g clip-path="url(#clip0_31_805)">
<path d="M12.5 7.5C12.6326 7.5 12.7598 7.55268 12.8535 7.64645C12.9473 7.74021 13 7.86739 13 8C12.9996 8.87732 12.7684 9.7391 12.3296 10.4988C11.8907 11.2585 11.2598 11.8893 10.5 12.328C10.3939 12.3893 10.269 12.4095 10.149 12.3848C10.029 12.3601 9.92222 12.2922 9.84897 12.194L9.81697 12.145L8.31697 9.55C8.26941 9.46786 8.24633 9.37383 8.25047 9.279L8.25547 9.224L8.26697 9.171L8.28397 9.118L8.30697 9.068L8.33497 9.021L8.36847 8.9765C8.39293 8.94761 8.42061 8.92161 8.45097 8.899L8.49997 8.867C8.64006 8.78607 8.75842 8.67237 8.84489 8.53564C8.93137 8.39892 8.98339 8.24325 8.99647 8.082L8.99997 8.0005C8.99987 7.87795 9.04477 7.75962 9.12616 7.668C9.20756 7.57638 9.31976 7.51784 9.44147 7.5035L9.49997 7.5H12.5Z" fill="#383838"/>
<path d="M5.49999 3.67199C6.26008 3.23315 7.1223 3.00212 7.99999 3.00212C8.87767 3.00212 9.73989 3.23315 10.5 3.67199C10.6061 3.73329 10.686 3.83141 10.7245 3.94774C10.7631 4.06406 10.7575 4.19048 10.709 4.30299L10.683 4.35499L9.18299 6.94999L9.15099 6.99899C9.12838 7.02936 9.10238 7.05703 9.07349 7.08149L9.02899 7.11499C8.99846 7.13553 8.96576 7.15263 8.93149 7.16599L8.87899 7.18299L8.82549 7.19399C8.73284 7.20811 8.63809 7.19599 8.55199 7.15899L8.49999 7.13299C8.36102 7.05277 8.20479 7.00716 8.04449 7.00003C7.88419 6.99289 7.72453 7.02444 7.57899 7.09199L7.49999 7.13299C7.3939 7.1943 7.26901 7.21452 7.149 7.18982C7.02899 7.16512 6.92223 7.09721 6.84899 6.99899L6.81699 6.94999L5.31699 4.35499C5.25068 4.24015 5.23272 4.10368 5.26704 3.97559C5.30136 3.84751 5.38515 3.7383 5.49999 3.67199Z" fill="#383838"/>
<path d="M6.5 7.5C6.62254 7.50003 6.74081 7.54506 6.83234 7.62654C6.92387 7.70803 6.98229 7.82028 6.9965 7.942L7 8.0005C6.99992 8.16219 7.03904 8.32148 7.11402 8.46473C7.189 8.60798 7.2976 8.73092 7.4305 8.823L7.549 8.899C7.57936 8.92161 7.60704 8.94761 7.6315 8.9765L7.665 9.021L7.693 9.0685L7.7155 9.118C7.7225 9.136 7.7285 9.153 7.733 9.171L7.744 9.2245L7.7495 9.2795C7.75282 9.35442 7.73915 9.42912 7.7095 9.498L7.683 9.55L6.183 12.145C6.11669 12.2598 6.00749 12.3436 5.8794 12.3779C5.75131 12.4123 5.61484 12.3943 5.5 12.328C4.74022 11.8893 4.10923 11.2585 3.6704 10.4988C3.23158 9.7391 3.00037 8.87732 3 8C3.00002 7.87753 3.04498 7.75933 3.12636 7.66781C3.20774 7.5763 3.31987 7.51783 3.4415 7.5035L3.5 7.5H6.5Z" fill="#383838"/>
</g>
<defs>
<clipPath id="clip0_31_805">
<rect width="12" height="12" fill="white" transform="translate(2 2)"/>
</clipPath>
</defs>
</svg>
