<svg width="12" height="12" viewBox="0 0 12 12" fill="none" xmlns="http://www.w3.org/2000/svg">
<g clip-path="url(#clip0_8_2537)">
<path d="M6 0.996002C5.09485 0.996169 4.20673 1.24204 3.43036 1.70738C2.654 2.17273 2.01851 2.8401 1.5917 3.63829C1.16488 4.43649 0.962749 5.33558 1.00686 6.23965C1.05096 7.14372 1.33966 8.01886 1.84215 8.77172C2.34463 9.52458 3.04206 10.1269 3.86004 10.5145C4.67801 10.902 5.58586 11.0603 6.48672 10.9723C7.38758 10.8844 8.24768 10.5536 8.97526 10.0151C9.70283 9.47668 10.2706 8.75083 10.618 7.915C10.7885 7.505 10.38 7.093 9.969 7.26C9.26459 7.54534 8.48245 7.57478 7.75858 7.34322C7.03471 7.11165 6.41488 6.63372 6.00687 5.99251C5.59886 5.35131 5.42847 4.58739 5.52532 3.83358C5.62217 3.07977 5.98015 2.38374 6.537 1.8665L6.5755 1.8265C6.851 1.5115 6.632 1 6.1965 1H6.0635L6.0295 0.997002L5.9995 0.996002H6Z" fill="#888888"/>
</g>
<defs>
<clipPath id="clip0_8_2537">
<rect width="12" height="12" fill="white"/>
</clipPath>
</defs>
</svg>
