<svg width="12" height="12" viewBox="0 0 12 12" fill="none" xmlns="http://www.w3.org/2000/svg">
<g clip-path="url(#clip0_8_2532)">
<path d="M10.447 7.7765C10.5062 7.89506 10.5159 8.03228 10.474 8.15801C10.4321 8.28373 10.342 8.38768 10.2235 8.447L6.22348 10.447C6.15409 10.4817 6.07757 10.4997 5.99999 10.4997C5.9224 10.4997 5.84589 10.4817 5.77649 10.447L1.77649 8.447C1.66212 8.38533 1.57626 8.28156 1.53708 8.15767C1.4979 8.03379 1.50848 7.89952 1.56659 7.7833C1.6247 7.66709 1.72577 7.57806 1.84838 7.53507C1.971 7.49208 2.10553 7.49851 2.22349 7.553L5.99999 9.44L9.77699 7.5525C9.89555 7.49329 10.0328 7.48357 10.1585 7.52548C10.2842 7.56739 10.3882 7.65749 10.4475 7.776M10.4475 5.776C10.5067 5.89456 10.5164 6.03178 10.4745 6.15751C10.4326 6.28323 10.3425 6.38718 10.224 6.4465L6.22399 8.4465C6.15459 8.48118 6.07807 8.49923 6.00049 8.49923C5.9229 8.49923 5.84639 8.48118 5.77699 8.4465L1.77699 6.4465C1.66262 6.38483 1.57676 6.28106 1.53758 6.15718C1.4984 6.03329 1.50898 5.89902 1.56709 5.7828C1.6252 5.66659 1.72627 5.57756 1.84888 5.53457C1.9715 5.49158 2.10603 5.49801 2.22399 5.5525L5.99999 7.44L9.77699 5.5525C9.89555 5.49329 10.0328 5.48357 10.1585 5.52548C10.2842 5.56739 10.3882 5.65749 10.4475 5.776ZM6.00399 1.5C6.02265 1.5 6.04115 1.50117 6.05949 1.5035L6.11498 1.5135L6.15799 1.5255L6.16399 1.5285L6.16999 1.5295L6.18449 1.5365L6.20949 1.546L6.21749 1.5505L6.22348 1.553L10.2235 3.553C10.3064 3.59457 10.3762 3.6584 10.4249 3.73734C10.4736 3.81628 10.4995 3.90723 10.4995 4C10.4995 4.09277 10.4736 4.18372 10.4249 4.26266C10.3762 4.3416 10.3064 4.40543 10.2235 4.447L6.22348 6.447C6.15409 6.48168 6.07757 6.49973 5.99999 6.49973C5.9224 6.49973 5.84589 6.48168 5.77649 6.447L1.77649 4.447C1.69354 4.40543 1.6238 4.3416 1.57507 4.26266C1.52633 4.18372 1.50052 4.09277 1.50052 4C1.50052 3.90723 1.52633 3.81628 1.57507 3.73734C1.6238 3.6584 1.69354 3.59457 1.77649 3.553L5.77649 1.553L5.78199 1.5505L5.79099 1.5455L5.82999 1.5295L5.83548 1.5285L5.84199 1.5255L5.88499 1.5135L5.93999 1.5035L5.96799 1.501L6.00399 1.5Z" fill="#888888"/>
</g>
<defs>
<clipPath id="clip0_8_2532">
<rect width="12" height="12" fill="white"/>
</clipPath>
</defs>
</svg>
