<svg width="12" height="12" viewBox="0 0 12 12" fill="none" xmlns="http://www.w3.org/2000/svg">
<g clip-path="url(#clip0_8_2540)">
<path d="M9.5 1.5C9.76522 1.5 10.0196 1.60536 10.2071 1.79289C10.3946 1.98043 10.5 2.23478 10.5 2.5V3.5C10.5 3.76522 10.3946 4.01957 10.2071 4.20711C10.0196 4.39464 9.76522 4.5 9.5 4.5H2.5C2.23478 4.5 1.98043 4.39464 1.79289 4.20711C1.60536 4.01957 1.5 3.76522 1.5 3.5V2.5C1.5 2.23478 1.60536 1.98043 1.79289 1.79289C1.98043 1.60536 2.23478 1.5 2.5 1.5H9.5Z" fill="#888888"/>
<path d="M4.5 5.5C4.76522 5.5 5.01957 5.60536 5.20711 5.79289C5.39464 5.98043 5.5 6.23478 5.5 6.5V9.5C5.5 9.76522 5.39464 10.0196 5.20711 10.2071C5.01957 10.3946 4.76522 10.5 4.5 10.5H2.5C2.23478 10.5 1.98043 10.3946 1.79289 10.2071C1.60536 10.0196 1.5 9.76522 1.5 9.5V6.5C1.5 6.23478 1.60536 5.98043 1.79289 5.79289C1.98043 5.60536 2.23478 5.5 2.5 5.5H4.5Z" fill="#888888"/>
<path d="M10 5.5C10.1326 5.5 10.2598 5.55268 10.3536 5.64645C10.4473 5.74021 10.5 5.86739 10.5 6C10.5 6.13261 10.4473 6.25979 10.3536 6.35355C10.2598 6.44732 10.1326 6.5 10 6.5H7C6.86739 6.5 6.74021 6.44732 6.64645 6.35355C6.55268 6.25979 6.5 6.13261 6.5 6C6.5 5.86739 6.55268 5.74021 6.64645 5.64645C6.74021 5.55268 6.86739 5.5 7 5.5H10Z" fill="#888888"/>
<path d="M10 7.5C10.1326 7.5 10.2598 7.55268 10.3536 7.64645C10.4473 7.74021 10.5 7.86739 10.5 8C10.5 8.13261 10.4473 8.25979 10.3536 8.35355C10.2598 8.44732 10.1326 8.5 10 8.5H7C6.86739 8.5 6.74021 8.44732 6.64645 8.35355C6.55268 8.25979 6.5 8.13261 6.5 8C6.5 7.86739 6.55268 7.74021 6.64645 7.64645C6.74021 7.55268 6.86739 7.5 7 7.5H10Z" fill="#888888"/>
<path d="M10 9.5C10.1326 9.5 10.2598 9.55268 10.3536 9.64645C10.4473 9.74021 10.5 9.86739 10.5 10C10.5 10.1326 10.4473 10.2598 10.3536 10.3536C10.2598 10.4473 10.1326 10.5 10 10.5H7C6.86739 10.5 6.74021 10.4473 6.64645 10.3536C6.55268 10.2598 6.5 10.1326 6.5 10C6.5 9.86739 6.55268 9.74021 6.64645 9.64645C6.74021 9.55268 6.86739 9.5 7 9.5H10Z" fill="#888888"/>
</g>
<defs>
<clipPath id="clip0_8_2540">
<rect width="12" height="12" fill="white"/>
</clipPath>
</defs>
</svg>
