<svg width="12" height="12" viewBox="0 0 12 12" fill="none" xmlns="http://www.w3.org/2000/svg">
<g clip-path="url(#clip0_31_814)">
<path d="M6 8.5C6.653 8.5 7.209 8.9175 7.415 9.5H10C10.1326 9.5 10.2598 9.55268 10.3536 9.64645C10.4473 9.74021 10.5 9.86739 10.5 10C10.5 10.1326 10.4473 10.2598 10.3536 10.3536C10.2598 10.4473 10.1326 10.5 10 10.5H7.4145C7.31099 10.7924 7.1194 11.0456 6.86609 11.2246C6.61278 11.4037 6.3102 11.4998 6 11.4998C5.6898 11.4998 5.38722 11.4037 5.13391 11.2246C4.8806 11.0456 4.68901 10.7924 4.5855 10.5H2C1.86739 10.5 1.74021 10.4473 1.64645 10.3536C1.55268 10.2598 1.5 10.1326 1.5 10C1.5 9.86739 1.55268 9.74021 1.64645 9.64645C1.74021 9.55268 1.86739 9.5 2 9.5H4.585C4.68851 9.20746 4.88016 8.95421 5.13357 8.77512C5.38699 8.59603 5.68969 8.49991 6 8.5Z" fill="#888888"/>
<path d="M8.5 1C8.76522 1 9.01957 1.10536 9.20711 1.29289C9.39464 1.48043 9.5 1.73478 9.5 2V6C9.5 6.26522 9.39464 6.51957 9.20711 6.70711C9.01957 6.89464 8.76522 7 8.5 7H7.207L6.3535 7.8535C6.2674 7.93959 6.15285 7.9913 6.03134 7.99894C5.90983 8.00658 5.7897 7.96963 5.6935 7.895L5.6465 7.8535L4.7925 7H3.5C3.24771 7.00008 3.00472 6.9048 2.81973 6.73325C2.63474 6.56171 2.52142 6.32658 2.5025 6.075L2.5 6V2C2.5 1.73478 2.60536 1.48043 2.79289 1.29289C2.98043 1.10536 3.23478 1 3.5 1H8.5Z" fill="#888888"/>
</g>
<defs>
<clipPath id="clip0_31_814">
<rect width="12" height="12" fill="white"/>
</clipPath>
</defs>
</svg>
