<svg width="12" height="12" viewBox="0 0 12 12" fill="none" xmlns="http://www.w3.org/2000/svg">
<g clip-path="url(#clip0_8_2545)">
<path d="M7 1.536C7.49477 1.82161 7.92263 2.20989 8.25477 2.67471C8.58691 3.13952 8.81563 3.67009 8.92553 4.23071C9.03544 4.79133 9.02398 5.36899 8.89193 5.92481C8.75988 6.48063 8.51031 7.00172 8.16 7.453L10.8535 10.1465C10.9446 10.2408 10.995 10.3671 10.9938 10.4982C10.9927 10.6293 10.9401 10.7547 10.8474 10.8474C10.7547 10.9401 10.6293 10.9927 10.4982 10.9938C10.3671 10.995 10.2408 10.9446 10.1465 10.8535L7.4525 8.16C6.86122 8.6189 6.15306 8.9027 5.40851 8.97914C4.66396 9.05558 3.9129 8.92159 3.24071 8.5924C2.56853 8.26321 2.00219 7.75203 1.60608 7.11697C1.20997 6.48191 0.999989 5.74846 1 5L1.0025 4.8575C1.0271 4.16787 1.22968 3.49634 1.59057 2.90817C1.95146 2.31999 2.45837 1.83518 3.06204 1.50086C3.66572 1.16654 4.34561 0.994079 5.03565 1.00024C5.72568 1.00639 6.40239 1.19096 7 1.536ZM4.3535 3.646C4.25974 3.55226 4.13258 3.49961 4 3.49961C3.86742 3.49961 3.74026 3.55226 3.6465 3.646L2.6465 4.646C2.60001 4.69244 2.56313 4.74758 2.53797 4.80828C2.51281 4.86898 2.49986 4.93404 2.49986 4.99975C2.49986 5.06546 2.51281 5.13052 2.53797 5.19122C2.56313 5.25192 2.60001 5.30706 2.6465 5.3535L3.6465 6.3535C3.74026 6.44723 3.86742 6.49989 4 6.49989C4.13258 6.49989 4.25974 6.44723 4.3535 6.3535L4.395 6.3065C4.46963 6.2103 4.50658 6.09017 4.49894 5.96866C4.4913 5.84715 4.43959 5.7326 4.3535 5.6465L3.7075 5L4.3535 4.3535C4.44724 4.25973 4.49989 4.13258 4.49989 4C4.49989 3.86742 4.44724 3.74026 4.3535 3.6465M6.3535 3.6465C6.25974 3.55276 6.13258 3.50011 6 3.50011C5.86742 3.50011 5.74026 3.55276 5.6465 3.6465L5.605 3.694C5.53037 3.7902 5.49342 3.91033 5.50106 4.03184C5.5087 4.15335 5.56041 4.2679 5.6465 4.354L6.2925 5L5.6465 5.6465C5.55542 5.7408 5.50502 5.8671 5.50616 5.9982C5.5073 6.1293 5.55989 6.2547 5.65259 6.34741C5.74529 6.44011 5.8707 6.4927 6.0018 6.49384C6.1329 6.49498 6.2592 6.44458 6.3535 6.3535L7.3535 5.3535C7.44724 5.25974 7.49989 5.13258 7.49989 5C7.49989 4.86742 7.44724 4.74026 7.3535 4.6465L6.3535 3.6465Z" fill="#888888"/>
</g>
<defs>
<clipPath id="clip0_8_2545">
<rect width="12" height="12" fill="white"/>
</clipPath>
</defs>
</svg>
