<svg width="12" height="12" viewBox="0 0 12 12" fill="none" xmlns="http://www.w3.org/2000/svg">
<g clip-path="url(#clip0_31_815)">
<path d="M7 1.536C7.47624 1.81097 7.89067 2.18119 8.21739 2.62353C8.54412 3.06587 8.77612 3.57083 8.89892 4.10687C9.02171 4.64291 9.03266 5.19851 8.93107 5.73897C8.82949 6.27943 8.61755 6.79313 8.3085 7.248L10.7805 9.7195C10.9181 9.85512 10.9981 10.0386 11.0038 10.2318C11.0094 10.4249 10.9403 10.6128 10.8109 10.7562C10.6814 10.8996 10.5016 10.9876 10.3089 11.0017C10.1162 11.0158 9.92548 10.955 9.7765 10.832L9.7195 10.7805L7.248 8.3085C6.6567 8.71015 5.96856 8.946 5.2552 8.99152C4.54184 9.03705 3.8293 8.89058 3.19174 8.56736C2.55418 8.24414 2.01488 7.75597 1.62995 7.15365C1.24502 6.55133 1.02853 5.85686 1.003 5.1425L1 5L1.0025 4.8575C1.0271 4.16787 1.22968 3.49634 1.59057 2.90817C1.95146 2.31999 2.45837 1.83518 3.06204 1.50086C3.66572 1.16654 4.34561 0.994079 5.03565 1.00024C5.72568 1.00639 6.40239 1.19096 7 1.536ZM6.5 4.5H3.5L3.4415 4.5035C3.31998 4.51795 3.20797 4.57648 3.12671 4.66798C3.04544 4.75949 3.00056 4.87762 3.00056 5C3.00056 5.12238 3.04544 5.24051 3.12671 5.33202C3.20797 5.42352 3.31998 5.48204 3.4415 5.4965L3.5 5.5H6.5L6.5585 5.4965C6.68002 5.48204 6.79203 5.42352 6.87329 5.33202C6.95456 5.24051 6.99944 5.12238 6.99944 5C6.99944 4.87762 6.95456 4.75949 6.87329 4.66798C6.79203 4.57648 6.68002 4.51795 6.5585 4.5035L6.5 4.5Z" fill="#888888"/>
</g>
<defs>
<clipPath id="clip0_31_815">
<rect width="12" height="12" fill="white"/>
</clipPath>
</defs>
</svg>
